<?xml version="1.0" encoding="UTF-8" standalone="no"?><svg xmlns="http://www.w3.org/2000/svg" xmlns:xlink="http://www.w3.org/1999/xlink" contentStyleType="text/css" height="201px" preserveAspectRatio="none" style="width:400px;height:201px;background:#FFFFFF;" version="1.1" viewBox="0 0 400 201" width="400px" zoomAndPan="magnify"><defs/><g><!--MD5=[fee662a292a0353a69bd162820bae93b]
entity User--><g id="elem_User"><ellipse cx="145.5" cy="71" fill="#F1F1F1" rx="8" ry="8" style="stroke:#181818;stroke-width:0.5;"/><path d="M145.5,79 L145.5,106 M132.5,87 L158.5,87 M145.5,106 L132.5,121 M145.5,106 L158.5,121 " fill="none" style="stroke:#181818;stroke-width:0.5;"/><text fill="#000000" font-family="sans-serif" font-size="14" lengthAdjust="spacing" textLength="29" x="131" y="137.0332">User</text></g><!--MD5=[7f62685678746839eddda14500f93391]
entity Analyst--><g id="elem_Analyst"><ellipse cx="38.5" cy="14" fill="#F1F1F1" rx="8" ry="8" style="stroke:#181818;stroke-width:0.5;"/><path d="M38.5,22 L38.5,49 M25.5,30 L51.5,30 M38.5,49 L25.5,64 M38.5,49 L51.5,64 " fill="none" style="stroke:#181818;stroke-width:0.5;"/><text fill="#000000" font-family="sans-serif" font-size="14" lengthAdjust="spacing" textLength="46" x="15.5" y="80.0332">Analyst</text></g><!--MD5=[db66fe8cbe2cdf0454290dbf82c3f59c]
entity Developer--><g id="elem_Developer"><ellipse cx="38.5" cy="127" fill="#F1F1F1" rx="8" ry="8" style="stroke:#181818;stroke-width:0.5;"/><path d="M38.5,135 L38.5,162 M25.5,143 L51.5,143 M38.5,162 L25.5,177 M38.5,162 L51.5,177 " fill="none" style="stroke:#181818;stroke-width:0.5;"/><text fill="#000000" font-family="sans-serif" font-size="14" lengthAdjust="spacing" textLength="65" x="6" y="193.0332">Developer</text></g><!--MD5=[de7935bb680e75847b0f6897915bb757]
entity Tester--><g id="elem_Tester"><ellipse cx="337" cy="14" fill="#F1F1F1" rx="8" ry="8" style="stroke:#181818;stroke-width:0.5;"/><path d="M337,22 L337,49 M324,30 L350,30 M337,49 L324,64 M337,49 L350,64 " fill="none" style="stroke:#181818;stroke-width:0.5;"/><text fill="#000000" font-family="sans-serif" font-size="14" lengthAdjust="spacing" textLength="41" x="316.5" y="80.0332">Tester</text></g><!--MD5=[6bb665717dfb7d467f5e0e6c38ac4b45]
entity PE--><g id="elem_PE"><ellipse cx="337" cy="127" fill="#F1F1F1" rx="8" ry="8" style="stroke:#181818;stroke-width:0.5;"/><path d="M337,135 L337,162 M324,143 L350,143 M337,162 L324,177 M337,162 L350,177 " fill="none" style="stroke:#181818;stroke-width:0.5;"/><text fill="#000000" font-family="sans-serif" font-size="14" lengthAdjust="spacing" textLength="112" x="281" y="193.0332">Process Engineer</text></g><!--MD5=[8c0b621892fa2fe42d399ac5576038fb]
link Analyst to User--><g id="link_Analyst_User"><path d="M61.51,56.45 C76.47,64.57 96.48,75.43 113.11,84.46 " fill="none" id="Analyst-to-User" style="stroke:#181818;stroke-width:1.0;stroke-dasharray:7.0,7.0;"/><polygon fill="none" points="116.61,78.4,130.85,94.09,109.94,90.7,116.61,78.4" style="stroke:#181818;stroke-width:1.0;"/></g><!--MD5=[cc80b15a1005322d35f5aa76e49edf09]
link Developer to User--><g id="link_Developer_User"><path d="M71,140.7 C84.24,133.64 99.61,125.44 112.86,118.37 " fill="none" id="Developer-to-User" style="stroke:#181818;stroke-width:1.0;stroke-dasharray:7.0,7.0;"/><polygon fill="none" points="109.86,112.04,130.8,108.81,116.45,124.4,109.86,112.04" style="stroke:#181818;stroke-width:1.0;"/></g><!--MD5=[d57aed53aabf1b99bbd4e138fae11c4e]
reverse link User to Tester--><g id="link_User_Tester"><path d="M179.33,91.63 C218.87,79.73 284.03,60.13 316.44,50.38 " fill="none" id="User-backto-Tester" style="stroke:#181818;stroke-width:1.0;stroke-dasharray:7.0,7.0;"/><polygon fill="none" points="181.3,98.34,160.13,97.4,177.26,84.94,181.3,98.34" style="stroke:#181818;stroke-width:1.0;"/></g><!--MD5=[1e7bf997e15c535360f585a6c0a9e79d]
reverse link User to PE--><g id="link_User_PE"><path d="M179.36,111.21 C207.23,119.45 247.78,131.43 280.64,141.14 " fill="none" id="User-backto-PE" style="stroke:#181818;stroke-width:1.0;stroke-dasharray:7.0,7.0;"/><polygon fill="none" points="177.32,117.91,160.13,105.53,181.29,104.48,177.32,117.91" style="stroke:#181818;stroke-width:1.0;"/></g><!--MD5=[eb72167835cce91ad65454dfdc303077]
@startuml

left to right direction
'top to bottom direction

actor User
actor Analyst
actor Developer
actor Tester
actor "Process Engineer" as PE

Analyst ..|> User
Developer ..|> User
Tester -up..|> User
PE -up..|> User

@enduml

@startuml

left to right direction

actor User
actor Analyst
actor Developer
actor Tester
actor "Process Engineer" as PE

Analyst ..|> User
Developer ..|> User
Tester -up..|> User
PE -up..|> User

@enduml

PlantUML version 1.2022.7(Mon Aug 22 20:01:30 EEST 2022)
(GPL source distribution)
Java Runtime: Java(TM) SE Runtime Environment
JVM: Java HotSpot(TM) 64-Bit Server VM
Default Encoding: UTF-8
Language: en
Country: US
--></g></svg>