<svg xmlns="http://www.w3.org/2000/svg" xmlns:xlink="http://www.w3.org/1999/xlink" contentStyleType="text/css" height="319px" preserveAspectRatio="none" style="width:738px;height:319px;background:#FFFFFF;" version="1.1" viewBox="0 0 738 319" width="738px" zoomAndPan="magnify"><defs/><g><g id="TR"><rect fill="#FFFFCC" height="50" rx="12.5" ry="12.5" style="stroke:#800000;stroke-width:0.5;" width="116" x="7" y="135"/><line style="stroke:#800000;stroke-width:0.5;" x1="7" x2="123" y1="162.6094" y2="162.6094"/><text fill="#000000" font-family="sans-serif" font-size="14" lengthAdjust="spacing" textLength="96" x="17" y="154.5332">Transformation</text></g><g id="WTR"><rect fill="#FFFFCC" height="50" rx="12.5" ry="12.5" style="stroke:#800000;stroke-width:0.5;" width="179" x="166.5" y="135"/><line style="stroke:#800000;stroke-width:0.5;" x1="166.5" x2="345.5" y1="162.6094" y2="162.6094"/><text fill="#000000" font-family="sans-serif" font-size="14" lengthAdjust="spacing" textLength="159" x="176.5" y="154.5332">WI2S Traceability Review</text></g><g id="STR"><rect fill="#FFFFCC" height="50" rx="12.5" ry="12.5" style="stroke:#800000;stroke-width:0.5;" width="172" x="389" y="135"/><line style="stroke:#800000;stroke-width:0.5;" x1="389" x2="561" y1="162.6094" y2="162.6094"/><text fill="#000000" font-family="sans-serif" font-size="14" lengthAdjust="spacing" textLength="152" x="399" y="154.5332">S2S Traceability Review</text></g><g id="CR"><rect fill="#FFFFCC" height="50" rx="12.5" ry="12.5" style="stroke:#800000;stroke-width:0.5;" width="119" x="604.5" y="135"/><line style="stroke:#800000;stroke-width:0.5;" x1="604.5" x2="723.5" y1="162.6094" y2="162.6094"/><text fill="#000000" font-family="sans-serif" font-size="14" lengthAdjust="spacing" textLength="99" x="614.5" y="154.5332">Content Review</text></g><g id="CA"><rect fill="#FFFFCC" height="50" rx="12.5" ry="12.5" style="stroke:#800000;stroke-width:0.5;" width="135" x="596.5" y="263"/><line style="stroke:#800000;stroke-width:0.5;" x1="596.5" x2="731.5" y1="290.6094" y2="290.6094"/><text fill="#000000" font-family="sans-serif" font-size="14" lengthAdjust="spacing" textLength="115" x="606.5" y="282.5332">Content Approved</text></g><g id="COR"><rect fill="#FFFFCC" height="50" rx="12.5" ry="12.5" style="stroke:#800000;stroke-width:0.5;" width="148" x="248" y="7"/><line style="stroke:#800000;stroke-width:0.5;" x1="248" x2="396" y1="34.6094" y2="34.6094"/><text fill="#000000" font-family="sans-serif" font-size="14" lengthAdjust="spacing" textLength="128" x="258" y="26.5332">Correction Required</text></g><ellipse cx="65" cy="32" fill="#D3D3D3" rx="10" ry="10" style="stroke:#222222;stroke-width:1.0;"/><!--link *start* to TR--><g id="link_*start*_TR"><path d="M65,42.06 C65,61.25 65,100.52 65,128.77 " fill="none" id="*start*-to-TR" style="stroke:#800000;stroke-width:1.0;"/><polygon fill="#800000" points="65,134.77,69,125.77,65,129.77,61,125.77,65,134.77" style="stroke:#800000;stroke-width:1.0;"/></g><!--link COR to TR--><g id="link_COR_TR"><path d="M272.75,57.14 C227.13,79.51 165.0374,109.9589 119.4674,132.2989 " fill="none" id="COR-to-TR" style="stroke:#800000;stroke-width:1.0;"/><polygon fill="#800000" points="114.08,134.94,123.9219,134.57,118.5695,132.7391,120.4004,127.3867,114.08,134.94" style="stroke:#800000;stroke-width:1.0;"/><text fill="#000000" font-family="sans-serif" font-size="13" lengthAdjust="spacing" textLength="7" x="210" y="101.4951">8</text></g><!--link TR to WTR--><g id="link_TR_WTR"><path d="M123.08,160 C136.8,160 145.75,160 160.5,160 " fill="none" id="TR-to-WTR" style="stroke:#800000;stroke-width:1.0;"/><polygon fill="#800000" points="166.5,160,157.5,156,161.5,160,157.5,164,166.5,160" style="stroke:#800000;stroke-width:1.0;"/><text fill="#000000" font-family="sans-serif" font-size="13" lengthAdjust="spacing" textLength="7" x="141.25" y="153.4951">1</text></g><!--link WTR to STR--><g id="link_WTR_STR"><path d="M345.71,160 C360,160 368.76,160 382.96,160 " fill="none" id="WTR-to-STR" style="stroke:#800000;stroke-width:1.0;"/><polygon fill="#800000" points="388.96,160,379.96,156,383.96,160,379.96,164,388.96,160" style="stroke:#800000;stroke-width:1.0;"/><text fill="#000000" font-family="sans-serif" font-size="13" lengthAdjust="spacing" textLength="7" x="363.75" y="153.4951">2</text></g><!--link STR to CR--><g id="link_STR_CR"><path d="M561.2,160 C575.81,160 584.68,160 598.4,160 " fill="none" id="STR-to-CR" style="stroke:#800000;stroke-width:1.0;"/><polygon fill="#800000" points="604.4,160,595.4,156,599.4,160,595.4,164,604.4,160" style="stroke:#800000;stroke-width:1.0;"/><text fill="#000000" font-family="sans-serif" font-size="13" lengthAdjust="spacing" textLength="7" x="579.25" y="153.4951">3</text></g><!--link CR to CA--><g id="link_CR_CA"><path d="M664,185.29 C664,207.61 664,234.49 664,256.78 " fill="none" id="CR-to-CA" style="stroke:#800000;stroke-width:1.0;"/><polygon fill="#800000" points="664,262.78,668,253.78,664,257.78,660,253.78,664,262.78" style="stroke:#800000;stroke-width:1.0;"/><text fill="#000000" font-family="sans-serif" font-size="13" lengthAdjust="spacing" textLength="7" x="665" y="229.4951">4</text></g><!--link WTR to COR--><g id="link_WTR_COR"><path d="M268.69,134.78 C280.36,112.49 294.8081,84.9261 306.4881,62.6061 " fill="none" id="WTR-to-COR" style="stroke:#800000;stroke-width:1.0;"/><polygon fill="#800000" points="309.27,57.29,301.5531,63.4096,306.9517,61.7201,308.6412,67.1188,309.27,57.29" style="stroke:#800000;stroke-width:1.0;"/><text fill="#000000" font-family="sans-serif" font-size="13" lengthAdjust="spacing" textLength="7" x="294" y="101.4951">5</text></g><!--link STR to COR--><g id="link_STR_COR"><path d="M445.85,134.99 C418.78,112.7 383.311,83.4949 356.131,61.1049 " fill="none" id="STR-to-COR" style="stroke:#800000;stroke-width:1.0;"/><polygon fill="#800000" points="351.5,57.29,355.9033,66.0997,355.3592,60.4691,360.9898,59.925,351.5,57.29" style="stroke:#800000;stroke-width:1.0;"/><text fill="#000000" font-family="sans-serif" font-size="13" lengthAdjust="spacing" textLength="7" x="409" y="101.4951">6</text></g><!--link CR to COR--><g id="link_CR_COR"><path d="M604.41,137.04 C543.82,114.72 455.8097,82.3052 393.1697,59.2152 " fill="none" id="CR-to-COR" style="stroke:#800000;stroke-width:1.0;"/><polygon fill="#800000" points="387.54,57.14,394.6011,64.0059,392.2314,58.8693,397.368,56.4996,387.54,57.14" style="stroke:#800000;stroke-width:1.0;"/><text fill="#000000" font-family="sans-serif" font-size="13" lengthAdjust="spacing" textLength="7" x="515" y="101.4951">7</text></g><!--SRC=[VP1VIyCm5CNVyoakUnI6EFzIHg6hAC9aq1Rw83vaRQnXNJ9lifKY- -xU9Dig4yn3wRddTt9FEpMsRqNCZELMF4hU85z_Cw334NK7uTsTkLGYrQr6UEMejVB6tZyfZ7OWPxnQDQYtgWxyN3QVzXb5VuZisVJok7ObrORJJiXT0R_kF3xR6bfjZBCqrWBFMZnfPSDesLAKhlSV0wC2kJ8V6jVSIgr6m0qKsT4iNoOv4549lfIjj3raOYT5vx5ouF9_i7p0KYeXbFtjfd_CPBD1lHDri9F1HXILwqZnhwt48x7867kxU8TnhJirZbrxci4OtG_rEe87Lj0aTfKZk69bKBbJ4vO7bPAuPcbskYXD8hXX0NPoGS3jYNRgpkC7SS_O3m00]--></g></svg>